<svg xmlns="http://www.w3.org/2000/svg" viewBox="0 0 100 100">
  <!-- Background circle -->
  <circle cx="50" cy="50" r="45" fill="#0EA5E9" />
  
  <!-- Chart bars -->
  <rect x="25" y="60" width="8" height="15" rx="1" fill="white" />
  <rect x="37" y="50" width="8" height="25" rx="1" fill="white" />
  <rect x="49" y="35" width="8" height="40" rx="1" fill="white" />
  <rect x="61" y="45" width="8" height="30" rx="1" fill="white" />
  
  <!-- Line graph -->
  <path d="M25,35 L40,30 L50,25 L65,32 L75,25" fill="none" stroke="white" stroke-width="2" stroke-linecap="round" />
  <circle cx="25" cy="35" r="2" fill="#FBBF24" />
  <circle cx="40" cy="30" r="2" fill="#FBBF24" />
  <circle cx="50" cy="25" r="2" fill="#FBBF24" />
  <circle cx="65" cy="32" r="2" fill="#FBBF24" />
  <circle cx="75" cy="25" r="2" fill="#FBBF24" />
  
  <!-- AI brain icon -->
  <circle cx="75" cy="45" r="8" fill="#0EA5E9" stroke="white" stroke-width="1.5" />
  <path d="M70,45 C70,42 73,40 75,42 C77,40 80,42 80,45 C80,48 75,52 75,52 C75,52 70,48 70,45 Z" fill="white" />
  
  <!-- Circuit lines -->
  <path d="M65,45 L70,45" stroke="#F9FAFB" stroke-width="1" />
  <path d="M75,53 L75,60" stroke="#F9FAFB" stroke-width="1" />
  <path d="M80,45 L85,45 L85,55" stroke="#F9FAFB" stroke-width="1" />
</svg>