<svg xmlns="http://www.w3.org/2000/svg" viewBox="0 0 100 100">
  <!-- Background circle -->
  <circle cx="50" cy="50" r="45" fill="#EC4899" />
  
  <!-- Camera/Image Frame -->
  <rect x="25" y="30" width="50" height="40" rx="3" fill="white" />
  
  <!-- Camera lens -->
  <circle cx="50" cy="47" r="12" fill="#EC4899" stroke="white" stroke-width="2" />
  <circle cx="50" cy="47" r="8" fill="#EC4899" stroke="white" stroke-width="1" />
  <circle cx="50" cy="47" r="4" fill="white" />
  
  <!-- Magical effects -->
  <path d="M25,55 L35,48 L45,60 L60,40 L75,55 L75,67 L25,67 Z" fill="#C084FC" opacity="0.7" />
  
  <!-- Stars/sparkles -->
  <path d="M80,25 L82,30 L77,32 L82,34 L80,39 L83,34 L88,32 L83,30 Z" fill="#FDE68A" />
  <path d="M70,15 L71,18 L68,19 L71,20 L70,23 L72,20 L75,19 L72,18 Z" fill="#FDE68A" />
  <circle cx="65" cy="28" r="1.5" fill="#FDE68A" />
</svg>