<svg xmlns="http://www.w3.org/2000/svg" viewBox="0 0 100 100">
  <!-- Background circle -->
  <circle cx="50" cy="50" r="45" fill="#F472B6" />
  
  <!-- Template frames -->
  <rect x="25" y="30" width="20" height="25" rx="2" fill="white" />
  <rect x="30" y="35" width="10" height="3" rx="1" fill="#F472B6" />
  <rect x="30" y="40" width="10" height="10" rx="1" fill="#F472B6" opacity="0.7" />
  
  <rect x="50" y="25" width="25" height="35" rx="2" fill="white" />
  <rect x="55" y="30" width="15" height="3" rx="1" fill="#F472B6" />
  <rect x="55" y="36" width="15" height="15" rx="1" fill="#F472B6" opacity="0.7" />
  <rect x="55" y="54" width="15" height="3" rx="1" fill="#F472B6" />
  
  <rect x="35" y="60" width="30" height="15" rx="2" fill="white" />
  <rect x="40" y="63" width="20" height="3" rx="1" fill="#F472B6" />
  <rect x="40" y="68" width="20" height="4" rx="1" fill="#F472B6" opacity="0.7" />
  
  <!-- Paint brush -->
  <path d="M75,70 C72,75 65,73 67,68 L80,55 C82,50 85,52 83,57 Z" fill="#FDBA74" />
  <path d="M80,55 L67,68" fill="none" stroke="white" stroke-width="1" />
  <rect x="80" y="55" width="2" height="5" rx="1" transform="rotate(-45 81 57.5)" fill="#7C3AED" />
</svg>